<svg xmlns="http://www.w3.org/2000/svg" viewBox="0 0 1200 480" width="1200" height="480" role="img"><rect x="0" y="0" width="1200" height="480" rx="0" fill="#FFE5E8"/><circle cx="1080" cy="90" r="190" fill="#FFCFD5"/><circle cx="120" cy="430" r="160" fill="#FFD7DC"/><circle cx="660" cy="-40" r="120" fill="#FFDDE1"/><rect x="174" y="98" width="260" height="300" rx="26" fill="#23245D" opacity="0.08"/><rect x="170" y="90" width="260" height="300" rx="26" fill="#FFFFFF"/><circle cx="300" cy="210" r="74" fill="#FFEDC3"/><circle cx="300" cy="210" r="54" fill="#FFC338"/><polygon points="300.0,180.0 307.9,199.1 328.5,200.7 312.8,214.2 317.6,234.3 300.0,223.5 282.4,234.3 287.2,214.2 271.5,200.7 292.1,199.1" fill="#FFFFFF"/><path d="M266 268 l0 66 l34 -24 l34 24 l0 -66 z" fill="#FFC338"/><rect x="230" y="352" width="140" height="14" rx="7" fill="#23245D" opacity="0.22"/><rect x="474" y="98" width="260" height="300" rx="26" fill="#23245D" opacity="0.08"/><rect x="470" y="90" width="260" height="300" rx="26" fill="#FFFFFF"/><circle cx="600" cy="210" r="74" fill="#FFE1E5"/><circle cx="600" cy="210" r="54" fill="#FF9CA7"/><polygon points="600.0,180.0 607.9,199.1 628.5,200.7 612.8,214.2 617.6,234.3 600.0,223.5 582.4,234.3 587.2,214.2 571.5,200.7 592.1,199.1" fill="#FFFFFF"/><path d="M566 268 l0 66 l34 -24 l34 24 l0 -66 z" fill="#FF9CA7"/><rect x="530" y="352" width="140" height="14" rx="7" fill="#23245D" opacity="0.22"/><rect x="774" y="98" width="260" height="300" rx="26" fill="#23245D" opacity="0.08"/><rect x="770" y="90" width="260" height="300" rx="26" fill="#FFFFFF"/><circle cx="900" cy="210" r="74" fill="#F2F2F5"/><circle cx="900" cy="210" r="54" fill="#E5E5EC"/><polygon points="900.0,180.0 907.9,199.1 928.5,200.7 912.8,214.2 917.6,234.3 900.0,223.5 882.4,234.3 887.2,214.2 871.5,200.7 892.1,199.1" fill="#FFFFFF"/><path d="M866 268 l0 66 l34 -24 l34 24 l0 -66 z" fill="#E5E5EC"/><rect x="830" y="352" width="140" height="14" rx="7" fill="#23245D" opacity="0.22"/></svg>