<svg xmlns="http://www.w3.org/2000/svg" viewBox="0 0 1200 480" width="1200" height="480" role="img"><rect x="0" y="0" width="1200" height="480" rx="0" fill="#D9FCEA"/><circle cx="1080" cy="90" r="190" fill="#B8F9D9"/><circle cx="120" cy="430" r="160" fill="#C4FADF"/><circle cx="660" cy="-40" r="120" fill="#CDFBE4"/><rect x="154" y="98" width="900" height="300" rx="28" fill="#23245D" opacity="0.08"/><rect x="150" y="90" width="900" height="300" rx="28" fill="#FFFFFF"/><rect x="182" y="122" width="260" height="236" rx="20" fill="#B6F9D7"/><circle cx="312" cy="208" r="46" fill="#FFFFFF" opacity="0.9"/><polygon points="312.0,180.0 319.4,197.8 338.6,199.3 324.0,211.9 328.5,230.7 312.0,220.6 295.5,230.7 300.0,211.9 285.4,199.3 304.6,197.8" fill="#6CF3AF"/><rect x="238" y="292" width="148" height="34" rx="17" fill="#6CF3AF"/><rect x="482" y="132" width="200" height="30" rx="15" fill="#DAC0FE"/><rect x="698" y="132" width="130" height="30" rx="15" fill="#FFCED3"/><rect x="482" y="190" width="520" height="12" rx="6" fill="#23245D" opacity="0.18"/><rect x="482" y="216" width="470" height="12" rx="6" fill="#23245D" opacity="0.18"/><rect x="482" y="242" width="360" height="12" rx="6" fill="#23245D" opacity="0.18"/><rect x="482" y="296" width="90" height="40" rx="20" fill="#B8E7FE"/><circle cx="504" cy="316" r="12" fill="#00AAFC"/><rect x="524" y="310" width="34" height="12" rx="6" fill="#23245D" opacity="0.35"/><rect x="588" y="296" width="90" height="40" rx="20" fill="#FFEEC7"/><circle cx="610" cy="316" r="12" fill="#FFC338"/><rect x="630" y="310" width="34" height="12" rx="6" fill="#23245D" opacity="0.35"/><rect x="694" y="296" width="90" height="40" rx="20" fill="#E8D8FE"/><circle cx="716" cy="316" r="12" fill="#AC74FD"/><rect x="736" y="310" width="34" height="12" rx="6" fill="#23245D" opacity="0.35"/></svg>