<svg xmlns="http://www.w3.org/2000/svg" viewBox="0 0 1200 480" width="1200" height="480" role="img"><rect x="0" y="0" width="1200" height="480" rx="0" fill="#E9DBFE"/><circle cx="1080" cy="90" r="190" fill="#D7BCFE"/><circle cx="120" cy="430" r="160" fill="#DEC7FE"/><circle cx="660" cy="-40" r="120" fill="#E3D0FE"/><rect x="204" y="88" width="560" height="320" rx="28" fill="#23245D" opacity="0.08"/><rect x="200" y="80" width="560" height="320" rx="28" fill="#FFFFFF"/><rect x="236" y="116" width="300" height="24" rx="12" fill="#23245D" opacity="0.28"/><rect x="236" y="172" width="488" height="12" rx="6" fill="#23245D" opacity="0.18"/><rect x="236" y="204" width="460" height="12" rx="6" fill="#23245D" opacity="0.18"/><rect x="236" y="236" width="488" height="12" rx="6" fill="#23245D" opacity="0.18"/><rect x="236" y="268" width="380" height="12" rx="6" fill="#23245D" opacity="0.18"/><rect x="236" y="300" width="300" height="12" rx="6" fill="#23245D" opacity="0.18"/><rect x="814" y="128" width="220" height="240" rx="22" fill="#23245D" opacity="0.08"/><rect x="810" y="120" width="220" height="240" rx="22" fill="#E6D5FE"/><rect x="836" y="138" width="220" height="220" rx="22" fill="#23245D" opacity="0.08"/><rect x="832" y="130" width="220" height="220" rx="22" fill="#D9BFFE"/><rect x="858" y="148" width="220" height="200" rx="22" fill="#23245D" opacity="0.08"/><rect x="854" y="140" width="220" height="200" rx="22" fill="#CCA9FE"/><rect x="852" y="168" width="140" height="16" rx="8" fill="#23245D" opacity="0.25"/><rect x="852" y="208" width="140" height="12" rx="6" fill="#23245D" opacity="0.18"/><rect x="852" y="234" width="118" height="12" rx="6" fill="#23245D" opacity="0.18"/><rect x="852" y="260" width="132" height="12" rx="6" fill="#23245D" opacity="0.18"/></svg>