<svg xmlns="http://www.w3.org/2000/svg" viewBox="0 0 1200 480" width="1200" height="480" role="img"><rect x="0" y="0" width="1200" height="480" rx="0" fill="#E9DBFE"/><circle cx="1080" cy="90" r="190" fill="#D7BCFE"/><circle cx="120" cy="430" r="160" fill="#DEC7FE"/><circle cx="660" cy="-40" r="120" fill="#E3D0FE"/><rect x="114" y="128" width="320" height="250" rx="26" fill="#23245D" opacity="0.08"/><rect x="110" y="120" width="320" height="250" rx="26" fill="#FFFFFF"/><rect x="142" y="152" width="256" height="96" rx="18" fill="#DAC0FE"/><rect x="142" y="272" width="200" height="12" rx="6" fill="#23245D" opacity="0.18"/><rect x="142" y="294" width="160" height="12" rx="6" fill="#23245D" opacity="0.18"/><rect x="142" y="320" width="110" height="32" rx="16" fill="#AC74FD"/><rect x="774" y="128" width="320" height="250" rx="26" fill="#23245D" opacity="0.08"/><rect x="770" y="120" width="320" height="250" rx="26" fill="#FFFFFF"/><rect x="802" y="152" width="256" height="96" rx="18" fill="#BDFADB"/><rect x="802" y="272" width="200" height="12" rx="6" fill="#23245D" opacity="0.18"/><rect x="802" y="294" width="160" height="12" rx="6" fill="#23245D" opacity="0.18"/><rect x="802" y="320" width="110" height="32" rx="16" fill="#6CF3AF"/><circle cx="600" cy="245" r="88" fill="#FFFFFF" opacity="0.9"/><path d="M552 222 h96" stroke="#23245D" stroke-width="9" stroke-linecap="round"/><path d="M634 208 l16 14 l-16 14" stroke="#23245D" stroke-width="9" stroke-linecap="round" stroke-linejoin="round" fill="none"/><path d="M648 272 h-96" stroke="#23245D" stroke-width="9" stroke-linecap="round"/><path d="M566 258 l-16 14 l16 14" stroke="#23245D" stroke-width="9" stroke-linecap="round" stroke-linejoin="round" fill="none"/></svg>