<svg xmlns="http://www.w3.org/2000/svg" viewBox="0 0 1200 480" width="1200" height="480" role="img"><rect x="0" y="0" width="1200" height="480" rx="0" fill="#E9DBFE"/><circle cx="1080" cy="90" r="190" fill="#D7BCFE"/><circle cx="120" cy="430" r="160" fill="#DEC7FE"/><circle cx="660" cy="-40" r="120" fill="#E3D0FE"/><rect x="304" y="88" width="600" height="320" rx="28" fill="#23245D" opacity="0.08"/><rect x="300" y="80" width="600" height="320" rx="28" fill="#FFFFFF"/><circle cx="348" cy="140" r="22" fill="#A6E1FE"/><circle cx="348" cy="140" r="13" fill="#00AAFC"/><rect x="388" y="128" width="230" height="13" rx="7" fill="#23245D" opacity="0.3"/><rect x="388" y="150" width="150" height="10" rx="5" fill="#23245D" opacity="0.18"/><rect x="760" y="122" width="104" height="44" rx="22" fill="#00AAFC"/><circle cx="842" cy="144" r="16" fill="#FFFFFF"/><circle cx="348" cy="206" r="22" fill="#FFEAB9"/><circle cx="348" cy="206" r="13" fill="#FFC338"/><rect x="388" y="194" width="200" height="13" rx="7" fill="#23245D" opacity="0.3"/><rect x="388" y="216" width="150" height="10" rx="5" fill="#23245D" opacity="0.18"/><rect x="760" y="188" width="104" height="44" rx="22" fill="#FFC338"/><circle cx="842" cy="210" r="16" fill="#FFFFFF"/><circle cx="348" cy="272" r="22" fill="#E2CEFE"/><circle cx="348" cy="272" r="13" fill="#AC74FD"/><rect x="388" y="260" width="170" height="13" rx="7" fill="#23245D" opacity="0.3"/><rect x="388" y="282" width="150" height="10" rx="5" fill="#23245D" opacity="0.18"/><rect x="760" y="254" width="104" height="44" rx="22" fill="#AC74FD"/><circle cx="842" cy="276" r="16" fill="#FFFFFF"/><circle cx="348" cy="338" r="22" fill="#FFCBCB"/><circle cx="348" cy="338" r="13" fill="#FF6B6B"/><rect x="388" y="326" width="140" height="13" rx="7" fill="#23245D" opacity="0.3"/><rect x="388" y="348" width="150" height="10" rx="5" fill="#23245D" opacity="0.18"/><rect x="760" y="320" width="104" height="44" rx="22" fill="#E5E5EC"/><circle cx="782" cy="342" r="16" fill="#FFFFFF"/></svg>