<svg xmlns="http://www.w3.org/2000/svg" viewBox="0 0 1200 480" width="1200" height="480" role="img"><rect x="0" y="0" width="1200" height="480" rx="0" fill="#FFEFCB"/><circle cx="1080" cy="90" r="190" fill="#FFE29F"/><circle cx="120" cy="430" r="160" fill="#FFE7AF"/><circle cx="660" cy="-40" r="120" fill="#FFEBBB"/><rect x="204" y="88" width="380" height="320" rx="26" fill="#23245D" opacity="0.08"/><rect x="200" y="80" width="380" height="320" rx="26" fill="#FFFFFF"/><path d="M270 120 h160 l80 80 v180 a10 10 0 0 1 -10 10 h-230 a10 10 0 0 1 -10 -10 v-250 a10 10 0 0 1 10 -10 z" fill="#FFE7AF"/><path d="M430 120 v80 h80" fill="#FFD574"/><rect x="300" y="250" width="160" height="14" rx="7" fill="#FFFFFF"/><rect x="300" y="284" width="130" height="14" rx="7" fill="#FFFFFF"/><rect x="300" y="318" width="100" height="14" rx="7" fill="#FFFFFF"/><circle cx="830" cy="220" r="96" fill="#FFDADA"/><circle cx="830" cy="220" r="70" fill="#FF6B6B"/><rect x="820" y="178" width="20" height="56" rx="10" fill="#FFFFFF"/><circle cx="830" cy="252" r="11" fill="#FFFFFF"/><rect x="700" y="328" width="260" height="14" rx="7" fill="#23245D" opacity="0.2"/></svg>