<svg xmlns="http://www.w3.org/2000/svg" viewBox="0 0 1200 480" width="1200" height="480" role="img"><rect x="0" y="0" width="1200" height="480" rx="0" fill="#FFE5E8"/><circle cx="1080" cy="90" r="190" fill="#FFCFD5"/><circle cx="120" cy="430" r="160" fill="#FFD7DC"/><circle cx="660" cy="-40" r="120" fill="#FFDDE1"/><rect x="114" y="98" width="300" height="300" rx="26" fill="#23245D" opacity="0.08"/><rect x="110" y="90" width="300" height="300" rx="26" fill="#FFFFFF"/><rect x="140" y="122" width="240" height="130" rx="18" fill="#FFE7AF"/><circle cx="260" cy="187" r="40" fill="#FFFFFF" opacity="0.9"/><circle cx="260" cy="187" r="24" fill="#FFC338"/><rect x="140" y="276" width="180" height="14" rx="7" fill="#23245D" opacity="0.18"/><rect x="140" y="316" width="110" height="40" rx="20" fill="#FFEAB9"/><circle cx="162" cy="336" r="13" fill="#FFC338"/><rect x="182" y="330" width="46" height="12" rx="6" fill="#23245D" opacity="0.35"/><rect x="282" y="316" width="98" height="40" rx="20" fill="#23245D"/><rect x="454" y="98" width="300" height="300" rx="26" fill="#23245D" opacity="0.08"/><rect x="450" y="90" width="300" height="300" rx="26" fill="#FFFFFF"/><rect x="480" y="122" width="240" height="130" rx="18" fill="#FFD7DC"/><circle cx="600" cy="187" r="40" fill="#FFFFFF" opacity="0.9"/><circle cx="600" cy="187" r="24" fill="#FF9CA7"/><rect x="480" y="276" width="180" height="14" rx="7" fill="#23245D" opacity="0.18"/><rect x="480" y="316" width="110" height="40" rx="20" fill="#FFEAB9"/><circle cx="502" cy="336" r="13" fill="#FFC338"/><rect x="522" y="330" width="46" height="12" rx="6" fill="#23245D" opacity="0.35"/><rect x="622" y="316" width="98" height="40" rx="20" fill="#23245D"/><rect x="794" y="98" width="300" height="300" rx="26" fill="#23245D" opacity="0.08"/><rect x="790" y="90" width="300" height="300" rx="26" fill="#FFFFFF"/><rect x="820" y="122" width="240" height="130" rx="18" fill="#DEC7FE"/><circle cx="940" cy="187" r="40" fill="#FFFFFF" opacity="0.9"/><circle cx="940" cy="187" r="24" fill="#AC74FD"/><rect x="820" y="276" width="180" height="14" rx="7" fill="#23245D" opacity="0.18"/><rect x="820" y="316" width="110" height="40" rx="20" fill="#FFEAB9"/><circle cx="842" cy="336" r="13" fill="#FFC338"/><rect x="862" y="330" width="46" height="12" rx="6" fill="#23245D" opacity="0.35"/><rect x="962" y="316" width="98" height="40" rx="20" fill="#23245D"/></svg>